<svg class="svg-icon" style="width: 1em; height: 1em;vertical-align: middle;fill: currentColor;overflow: hidden;" viewBox="0 0 1024 1024" version="1.1" xmlns="http://www.w3.org/2000/svg"><path d="M560.7424 230.4H768a25.6 25.6 0 0 1 25.6 25.6v155.136a25.6 25.6 0 0 1-25.6 25.6h-207.2576a25.6 25.6 0 0 1-25.6-25.6V256a25.6 25.6 0 0 1 25.6-25.6z m-25.6 537.6V509.8496a25.6 25.6 0 0 1 25.6-25.6H768a25.6 25.6 0 0 1 25.6 25.6V768a25.6 25.6 0 0 1-25.6 25.6h-207.2576a25.6 25.6 0 0 1-25.6-25.6zM230.4 768v-155.136a25.6 25.6 0 0 1 25.6-25.6h207.2576a25.6 25.6 0 0 1 25.6 25.6V768a25.6 25.6 0 0 1-25.6 25.6H256a25.6 25.6 0 0 1-25.6-25.6z m0-253.8496V256a25.6 25.6 0 0 1 25.6-25.6h207.2576a25.6 25.6 0 0 1 25.6 25.6v258.1504a25.6 25.6 0 0 1-25.6 25.6H256a25.6 25.6 0 0 1-25.6-25.6z"  /></svg>